<svg width="148" height="68" viewBox="0 0 148 68" fill="none" xmlns="http://www.w3.org/2000/svg">
<path d="M67.1106 34.0549C67.1106 31.5878 66.6431 29.2346 65.8282 27.052C65.6126 34.2362 58.3105 39.7985 54.0234 43.4793H64.7543C66.2543 40.6688 67.1106 37.4625 67.1106 34.0549V34.0549ZM59.353 18.2359C55.9554 15.5907 51.6955 14 47.0557 14C35.9793 14 27 22.9793 27 34.0549C27 45.1304 35.9793 54.1094 47.0557 54.1094C52.1278 54.1094 56.7461 52.2118 60.2779 49.1062H45.7582L45.714 44.8423C54.4626 37.2369 59.8256 32.0935 59.8256 27.1254C59.8256 25.2791 59.1223 22.9491 55.9574 22.9491C53.4512 22.9491 51.0336 24.4008 51.473 30.4668H46.3738C45.0987 23.4336 48.9234 17.8499 56.2204 17.8499C57.3517 17.8499 58.3982 17.985 59.353 18.2359V18.2359Z" fill="#A3C626"/>
<path d="M85.7119 27.8613H90.4556C90.6178 24.2533 89.4019 18.5356 81.577 18.5356C75.8191 18.5356 71.6428 21.9827 71.6428 29.1588C71.6428 30.132 71.683 35.1594 71.683 38.2813C71.683 46.0668 77.0763 47.7692 81.6173 47.7692C84.3339 47.7692 88.2667 47.1607 90.091 45.1741V32.7672H81.171V37.2679H85.1448V42.7416C82.1441 43.755 76.6703 44.1608 76.6703 37.2679V29.1588C76.6703 24.3338 78.9007 22.6716 81.3734 22.6716C83.9282 22.6716 85.7119 23.9692 85.7119 27.8613V27.8613ZM120.997 39.9028C121.2 28.7942 108.469 32.4831 108.59 26.28C108.63 24.0911 110.05 22.6716 112.362 22.6716C114.835 22.6716 116.293 24.1313 116.253 27.943H120.916C121.038 24.496 120.227 18.6173 112.524 18.6173C107.739 18.6173 103.807 20.9693 103.725 26.1992C103.522 36.8618 116.335 33.3754 116.132 39.8223C116.051 42.4575 114.145 43.6331 111.996 43.6331C109.483 43.6331 107.455 42.1735 107.861 37.7947H103.157C102.63 43.5928 105.185 47.7289 111.956 47.7289C117.672 47.7289 120.916 44.5657 120.997 39.9028V39.9028ZM99.5777 47.3631H94.7941V18.9819H99.5777V47.3631ZM99.5777 47.3631H94.7941V18.9819H99.5777V47.3631Z" fill="#434242"/>
</svg>
