<svg width="148" height="68" viewBox="0 0 148 68" fill="none" xmlns="http://www.w3.org/2000/svg">
<path fill-rule="evenodd" clip-rule="evenodd" d="M21 49.0449V20.0749C21 19.266 21.3213 18.4902 21.8933 17.9182C22.4653 17.3462 23.2411 17.0249 24.05 17.0249H53.02L21 49.0449Z" fill="#1EA361"/>
<path fill-rule="evenodd" clip-rule="evenodd" d="M21 49.6519V49.0439L53.02 17.0239H53.628C54.4369 17.0239 55.2127 17.3453 55.7847 17.9172C56.3567 18.4892 56.678 19.265 56.678 20.0739V20.6739L24.658 52.6939H24.06C23.2511 52.6939 22.4753 52.3726 21.9033 51.8006C21.3313 51.2286 21.01 50.4528 21.01 49.6439" fill="#FEDB43"/>
<path fill-rule="evenodd" clip-rule="evenodd" d="M24.6699 52.7039L38.8499 38.5239L53.0299 52.7039H24.6699Z" fill="#5384C4"/>
<path fill-rule="evenodd" clip-rule="evenodd" d="M53.0301 52.7038L38.8501 38.5118L42.5101 34.8518L56.7001 49.0418V49.6498C56.7001 51.3338 55.3331 52.6998 53.6481 52.6998H53.0401L53.0301 52.7038Z" fill="white"/>
<path fill-rule="evenodd" clip-rule="evenodd" d="M56.7 49.0448L42.5 34.8648L56.68 20.6848L56.7 49.0448Z" fill="#C2C2C1"/>
<path d="M27.375 20.9679C29.19 20.1379 31.462 20.4759 32.935 21.8359L31.535 23.2229C30.061 21.7589 27.29 22.4529 26.599 24.3899C25.695 26.2949 27.197 28.7899 29.322 28.8269C30.722 28.9889 32.1 28.0569 32.392 26.6719C31.422 26.6739 30.452 26.6649 29.492 26.6789L29.474 24.8819L34.357 24.9479C34.479 26.1339 34.395 27.3939 33.757 28.4349C32.757 30.2979 30.394 31.1109 28.395 30.6409C25.923 30.1289 24.073 27.5929 24.411 25.0809C24.584 23.3089 25.781 21.7029 27.393 20.9689" fill="#EFEFEF"/>
<path d="M50.4601 12H51.6201C54.5201 12.166 57.3371 13.578 59.0901 15.9C60.2381 17.368 60.8781 19.2 61.0221 21.04V21.727C60.9551 25.313 58.6601 28.257 56.6721 31.047C54.4421 34.199 52.3801 37.634 51.8081 41.519C51.6551 42.177 51.8381 43.099 51.0521 43.396C50.8671 43.252 50.6521 43.133 50.5221 42.931C50.2891 40.759 49.7461 38.614 48.8201 36.631C47.7701 34.331 46.3051 32.231 44.8181 30.188C43.9131 28.962 43.0581 27.694 42.3521 26.342C41.2521 24.316 40.8291 21.922 41.2821 19.648C41.6541 17.853 42.5821 16.19 43.8941 14.904C45.6461 13.191 48.0141 12.154 50.4601 12.001V12ZM50.2341 18.318C48.8641 18.624 47.7121 19.838 47.5961 21.258C47.4521 22.58 48.2261 23.921 49.4101 24.505C50.6941 25.185 52.3801 24.975 53.4531 24.005C54.4551 23.119 54.8191 21.589 54.2961 20.351C53.6761 18.801 51.8401 17.919 50.2331 18.331" fill="#DC4B3E"/>
<path d="M50.2331 18.3169C51.8391 17.9169 53.6771 18.7869 54.2961 20.3369C54.8191 21.5749 54.4541 23.1049 53.4531 23.9909C52.3801 24.9729 50.6931 25.1909 49.4101 24.4909C48.2251 23.9069 47.4521 22.5659 47.5961 21.2439C47.7121 19.8239 48.8631 18.6109 50.2341 18.3039" fill="#802C27"/>
<path d="M69.1169 51.1419V38.2779H70.7699L75.2439 46.1119H75.2999L79.7869 38.2779H81.4399V51.1419H79.7869V43.5049L79.8529 41.3489H79.7869L75.7629 48.4029H74.7849L70.7599 41.3489H70.6899L70.7559 43.5049V51.1409L69.1169 51.1419ZM86.2589 51.4299C85.3239 51.4299 84.5429 51.1659 83.9139 50.6199C83.2849 50.0739 82.9709 49.3699 82.9709 48.4829C82.9709 47.5249 83.3429 46.7829 84.0909 46.2279C84.8389 45.6729 85.7509 45.4099 86.8409 45.4099C87.8109 45.4099 88.6079 45.5899 89.2309 45.9499V45.6999C89.2309 45.0529 89.0089 44.5349 88.5659 44.1449C88.1229 43.7549 87.5759 43.5619 86.9309 43.5619C86.4509 43.5619 86.0169 43.6749 85.6279 43.9019C85.2389 44.1289 84.9719 44.4419 84.8279 44.8369L83.3119 44.1909C83.5149 43.6639 83.9159 43.1759 84.5159 42.7269C85.1159 42.2779 85.9039 42.0529 86.8859 42.0529C88.0109 42.0529 88.9459 42.3829 89.6879 43.0429C90.4299 43.7029 90.8079 44.6309 90.8079 45.8279V51.1459H89.2299V49.9199H89.1639C88.5039 50.9259 87.5419 51.4359 86.2719 51.4359L86.2589 51.4299ZM86.5289 49.9139C87.2119 49.9139 87.8319 49.6599 88.3889 49.1509C88.9459 48.6419 89.2249 48.0409 89.2249 47.3459C88.7579 46.9619 88.0569 46.7709 87.1249 46.7709C86.3219 46.7709 85.7169 46.9439 85.3099 47.2979C84.9029 47.6519 84.6999 48.0529 84.6999 48.5199C84.6999 48.9499 84.8859 49.2929 85.2569 49.5439C85.6279 49.7949 86.0529 49.9209 86.5329 49.9209L86.5289 49.9139ZM97.2539 51.4299C96.5839 51.4299 95.9819 51.2859 95.4479 50.9999C94.9139 50.7139 94.5179 50.3529 94.2529 49.9199H94.1869L94.2529 51.1419V55.0219H92.5999V42.3389H94.1819V43.5609H94.2479C94.5119 43.1289 94.9099 42.7709 95.4429 42.4829C95.9759 42.1949 96.5769 42.0529 97.2489 42.0529C98.3869 42.0529 99.3689 42.5029 100.196 43.4009C101.023 44.2989 101.436 45.4109 101.436 46.7439C101.436 48.0769 101.023 49.1869 100.196 50.0869C99.3689 50.9869 98.3859 51.4339 97.2489 51.4339L97.2539 51.4299ZM96.9899 49.9139C97.7559 49.9139 98.4139 49.6139 98.9669 49.0419C99.5199 48.4699 99.7939 47.6919 99.7939 46.7339C99.7939 45.7759 99.5179 45.0069 98.9669 44.4339C98.4159 43.8609 97.7669 43.5639 96.9899 43.5639C96.6169 43.5585 96.2469 43.6326 95.9047 43.7813C95.5624 43.9299 95.2557 44.1496 95.0049 44.4259C94.4599 45.0009 94.1869 45.7739 94.1869 46.7439C94.1869 47.7139 94.4599 48.4869 95.0049 49.0609C95.255 49.3359 95.5607 49.5545 95.9017 49.7022C96.2428 49.85 96.6113 49.9235 96.9829 49.9179L96.9899 49.9139ZM106.136 51.4299C105.146 51.4299 104.341 51.1899 103.701 50.7049C103.061 50.2199 102.589 49.6269 102.291 48.9079L103.765 48.2979C104.227 49.3979 105.029 49.9509 106.155 49.9509C106.669 49.9509 107.091 49.8369 107.421 49.6089C107.751 49.3809 107.915 49.0819 107.915 48.7089C107.915 48.1339 107.515 47.7449 106.711 47.5419L104.931 47.1119C104.345 46.9571 103.8 46.6781 103.332 46.2939C102.829 45.8919 102.578 45.3509 102.578 44.6679C102.578 43.8899 102.922 43.2579 103.611 42.7719C104.3 42.2859 105.117 42.0449 106.064 42.0449C106.842 42.0449 107.538 42.2219 108.149 42.5749C108.76 42.9279 109.204 43.4349 109.469 44.0929L108.032 44.6859C107.702 43.9079 107.038 43.5189 106.02 43.5189C105.53 43.5189 105.115 43.6209 104.78 43.8239C104.445 44.0269 104.276 44.3039 104.276 44.6499C104.276 45.1529 104.672 45.4939 105.443 45.6739L107.186 46.0869C108.012 46.2849 108.623 46.6139 109.019 47.0769C109.404 47.5135 109.615 48.0766 109.612 48.6589C109.612 49.4489 109.282 50.1089 108.642 50.6349C108.002 51.1609 107.162 51.4249 106.145 51.4249L106.136 51.4299ZM83.4919 24.4519H76.6679V26.4759H81.5079C81.2679 29.3159 78.9059 30.5259 76.6779 30.5259C75.9715 30.5289 75.2716 30.3911 74.619 30.1207C73.9664 29.8503 73.3742 29.4526 72.8769 28.9509C72.3796 28.4491 71.9872 27.8534 71.7227 27.1984C71.4581 26.5434 71.3266 25.8422 71.3359 25.1359C71.3359 22.0719 73.7089 19.7109 76.6839 19.7109C78.9779 19.7109 80.3319 21.1749 80.3319 21.1749L81.7489 19.7069C81.7489 19.7069 79.9289 17.6819 76.6109 17.6819C72.3859 17.6819 69.1169 21.2549 69.1169 25.0999C69.1169 28.8739 72.1919 32.5549 76.7189 32.5549C80.7009 32.5549 83.6219 29.8269 83.6219 25.7929C83.6219 24.9359 83.4989 24.4509 83.4989 24.4509L83.4919 24.4519ZM89.0799 22.9859C86.2799 22.9859 84.2669 25.1759 84.2669 27.7279C84.2669 30.3179 86.2129 32.5409 89.1069 32.5409C91.7269 32.5409 93.8709 30.5389 93.8709 27.7769C93.8709 24.6099 91.3749 22.9799 89.0739 22.9799L89.0799 22.9859ZM89.1079 24.8639C90.4849 24.8639 91.7879 25.9769 91.7879 27.7699C91.7879 29.5259 90.4879 30.6699 89.0999 30.6699C87.5739 30.6699 86.3699 29.4479 86.3699 27.7559C86.3699 26.0999 87.5599 24.8639 89.1059 24.8639H89.1079ZM99.5329 22.9859C96.7329 22.9859 94.7199 25.1759 94.7199 27.7279C94.7199 30.3179 96.6659 32.5409 99.5599 32.5409C102.18 32.5409 104.324 30.5389 104.324 27.7769C104.324 24.6099 101.829 22.9799 99.5269 22.9799L99.5329 22.9859ZM99.5609 24.8639C100.938 24.8639 102.241 25.9769 102.241 27.7699C102.241 29.5259 100.941 30.6699 99.5539 30.6699C98.0279 30.6699 96.8239 29.4479 96.8239 27.7559C96.8239 26.0999 98.0139 24.8639 99.5599 24.8639H99.5609ZM109.785 22.9919C107.215 22.9919 105.195 25.2419 105.195 27.7689C105.195 30.6469 107.537 32.5559 109.74 32.5559C111.103 32.5559 111.827 32.0159 112.362 31.3939V32.3369C112.362 33.9869 111.36 34.9739 109.849 34.9739C108.389 34.9739 107.656 33.8879 107.402 33.2719L105.565 34.0399C106.215 35.4249 107.53 36.8549 109.865 36.8549C112.42 36.8549 114.368 35.2449 114.368 31.8709V23.2809H112.364V24.0809C111.748 23.4169 110.904 22.9839 109.794 22.9839L109.785 22.9919ZM109.972 24.8659C111.225 24.8659 112.525 25.9419 112.525 27.7789C112.525 29.6469 111.235 30.6759 109.943 30.6759C108.573 30.6759 107.306 29.5639 107.306 27.7959C107.306 25.9609 108.63 24.8659 109.979 24.8659H109.972ZM123.28 22.9799C120.856 22.9799 118.82 24.9079 118.82 27.7549C118.82 30.7649 121.088 32.5519 123.512 32.5519C125.536 32.5519 126.776 31.4459 127.517 30.4539L125.865 29.3539C125.435 30.0139 124.719 30.6699 123.523 30.6699C122.179 30.6699 121.563 29.9339 121.179 29.2219L127.579 26.5619L127.246 25.7819C126.626 24.2559 125.182 22.9799 123.27 22.9799H123.28ZM123.364 24.8259C124.238 24.8259 124.866 25.2899 125.134 25.8459L120.854 27.6359C120.669 26.2509 121.974 24.8359 123.359 24.8359L123.364 24.8259ZM115.764 32.2679H117.87V18.1779H115.764V32.2679Z" fill="#63666A"/>
</svg>
