<svg width="60" height="30" viewBox="0 0 60 30" fill="none" xmlns="http://www.w3.org/2000/svg">
<path d="M4.86371 18.9278C4.40651 18.8152 4.13944 18.6463 3.80391 18.2576C3.24994 17.6159 2.99031 16.7009 3.00028 15.4255C3.01399 13.6713 3.69524 12.53 4.9641 12.1357C5.2043 12.0611 5.55129 12 5.73519 12C6.11103 12 6.85644 12.2073 7.12432 12.3863L7.3011 12.5044L7.09265 13.1615C6.97799 13.5228 6.87267 13.8328 6.85859 13.8502C6.84452 13.8677 6.67781 13.817 6.48814 13.7375C6.29847 13.6581 5.95213 13.5885 5.71849 13.5827C5.35182 13.5738 5.25991 13.6062 5.04675 13.8199C4.68918 14.1784 4.533 14.8166 4.58213 15.7184C4.6432 16.8392 4.96715 17.3733 5.54908 17.3125C5.84827 17.2812 6.06761 16.9988 6.14409 16.5462L6.1977 16.229H5.78459H5.37148V15.5947V14.9603H6.4735H7.57553L7.53186 15.9964C7.47842 17.2646 7.28664 17.9216 6.82436 18.4201C6.35134 18.9302 5.63059 19.1168 4.86371 18.9278ZM12.8072 18.8737C12.8072 18.838 13.2024 17.6586 13.6854 16.2529L14.5635 13.6971L13.7056 13.6732L12.8476 13.6493L12.8244 12.8669L12.8011 12.0846H14.6631C15.6872 12.0846 16.5247 12.1131 16.5242 12.148C16.5237 12.1829 16.162 13.3533 15.7203 14.7489L14.9174 17.2863L15.805 17.3102L16.6927 17.3342L16.6695 18.1137L16.6463 18.8933L14.7267 18.916C13.671 18.9284 12.8072 18.9094 12.8072 18.8737ZM27.934 18.715C27.3916 18.4322 27.0004 17.8984 26.7674 17.1234C26.5099 16.267 26.5099 14.6686 26.7674 13.8122C27.1314 12.6013 27.8506 11.9984 28.927 12.0019C30.4879 12.0069 31.3157 13.208 31.3157 15.4678C31.3157 17.7276 30.4879 18.9286 28.927 18.9337C28.4723 18.9352 28.2714 18.891 27.934 18.715ZM29.3708 17.0932C29.9018 16.5375 29.9018 14.3981 29.3708 13.8424C29.0931 13.5518 28.7868 13.5392 28.5302 13.8077C28.2627 14.0876 28.1645 14.5336 28.1645 15.4678C28.1645 16.402 28.2627 16.848 28.5302 17.1279C28.7868 17.3964 29.0931 17.3838 29.3708 17.0932ZM42.4657 18.833C42.4637 18.7731 42.745 17.2302 43.0908 15.4044L43.7194 12.0846H44.6649C45.4954 12.0846 45.6156 12.1026 45.6526 12.2326C45.6939 12.3775 46.9145 18.825 46.9145 18.8983C46.9145 18.9188 46.5723 18.9356 46.154 18.9356H45.3935L45.2974 18.3398L45.2014 17.7441L44.6637 17.7689L44.1261 17.7938L44.0452 18.3435L43.9643 18.8933L43.2168 18.9176C42.6503 18.936 42.4684 18.9156 42.4657 18.833ZM44.9497 16.0387C44.9263 15.934 44.8609 15.4972 44.8045 15.0679C44.748 14.6386 44.6884 14.3014 44.672 14.3185C44.6367 14.3554 44.4125 15.8661 44.4104 16.081C44.4094 16.1949 44.4762 16.229 44.7006 16.229C44.9618 16.229 44.9878 16.2091 44.9497 16.0387ZM7.87345 18.7876C7.87143 18.7527 8.15279 17.2302 8.49853 15.4044L9.12716 12.0846H10.0766C10.9944 12.0846 11.0275 12.0909 11.0695 12.2749C11.1166 12.481 12.3223 18.7866 12.3223 18.8267C12.3223 18.8401 11.9796 18.851 11.5609 18.851H10.7995L10.757 18.6184C10.7336 18.4905 10.6909 18.2224 10.662 18.0227L10.6096 17.6595L10.0717 17.6843L9.53386 17.7092L9.4638 18.2801L9.39373 18.851H8.63536C8.21826 18.851 7.8754 18.8225 7.87345 18.7876ZM10.328 16.1656C10.3477 16.1307 10.3009 15.6835 10.2241 15.1718C10.0733 14.1669 10.0756 14.1654 9.89811 15.3832C9.77807 16.2066 9.78221 16.229 10.0544 16.229C10.1852 16.229 10.3083 16.2005 10.328 16.1656ZM17.4141 15.4678V12.0846L18.6467 12.0864C20.0741 12.0886 20.3489 12.1727 20.8231 12.7524C21.3997 13.4573 21.5188 14.508 21.1296 15.4548C20.8078 16.2376 20.1529 16.6519 19.2372 16.6519H18.8689V17.7515V18.851H18.1415H17.4141V15.4678ZM19.6308 14.9967C19.8019 14.8177 19.8682 14.506 19.8122 14.1447C19.7455 13.7147 19.6275 13.607 19.2227 13.607H18.8689V14.3682V15.1295H19.1864C19.3672 15.1295 19.5586 15.0723 19.6308 14.9967ZM21.9402 15.4678V12.0846H23.123C24.5267 12.0846 24.8508 12.1669 25.3019 12.6384C26.094 13.466 26.0964 14.8822 25.3074 15.86L25.0932 16.1254L25.6989 17.4537C26.0321 18.1843 26.3046 18.7975 26.3046 18.8165C26.3046 18.8355 25.9259 18.851 25.463 18.851H24.6215L24.4146 18.2801C24.3009 17.9661 24.1199 17.4618 24.0124 17.1594C23.8661 16.7476 23.7742 16.6028 23.6464 16.5826C23.4799 16.5562 23.4758 16.5833 23.4758 17.7033V18.851H22.708H21.9402L21.9402 15.4678ZM24.2032 14.9603C24.3198 14.8384 24.3649 14.6784 24.3649 14.3871C24.3649 13.8309 24.2012 13.607 23.7945 13.607H23.4758V14.3682V15.1295H23.7587C23.9338 15.1295 24.1032 15.065 24.2032 14.9603ZM32.1239 15.4678V12.0846H32.7628H33.4018L33.9337 12.8458C34.2262 13.2645 34.4933 13.6063 34.5273 13.6055C34.5612 13.6047 34.8252 13.2621 35.1139 12.8443L35.6388 12.0846H36.306H36.9733V15.4678V18.851H36.2069H35.4405L35.4188 16.8135L35.3972 14.776L34.96 15.3471L34.5228 15.9181L34.273 15.5889C34.1356 15.4079 33.9243 15.1448 33.8033 15.0043L33.5834 14.7489L33.5812 16.7999L33.5789 18.851H32.8515H32.1241L32.1239 15.4678ZM37.9431 15.4622V12.0734L39.2969 12.1002C40.435 12.1226 40.7005 12.1527 40.9632 12.2892C41.8602 12.7552 42.0842 14.099 41.4116 14.9801L41.1705 15.2959L41.5285 15.6568C42.453 16.5884 42.1294 18.2826 40.9433 18.7205C40.6801 18.8177 40.2525 18.851 39.2666 18.851H37.9431V15.4622ZM40.287 17.1594C40.3861 17.0557 40.4486 16.8775 40.4486 16.699C40.4486 16.3289 40.2141 16.1444 39.7437 16.1444H39.3979V16.7365V17.3286H39.7617C40.0176 17.3286 40.1733 17.2784 40.287 17.1594ZM40.1074 14.5749C40.2276 14.4868 40.287 14.3561 40.287 14.1798C40.287 13.8079 40.0842 13.607 39.7087 13.607H39.3979V14.1568V14.7066H39.6629C39.8085 14.7066 40.0086 14.6473 40.1074 14.5749ZM47.4802 15.4678V12.0846H48.1264H48.7725L49.4961 13.5859L50.2197 15.0872L50.2239 13.5859L50.2282 12.0846H50.9556H51.683V15.4678V18.851H51.0561H50.4291L49.7427 17.3318L49.0563 15.8127L49.0343 17.3318L49.0123 18.851H48.2463H47.4803L47.4802 15.4678ZM52.6529 15.4678V12.0846H53.3803H54.1077V13.311C54.1077 14.4658 54.1168 14.5374 54.2636 14.5374C54.427 14.5374 54.435 14.5193 55.0039 12.8669L55.2732 12.0846H56.0645C56.4997 12.0846 56.8557 12.098 56.8557 12.1143C56.8557 12.1307 56.601 12.8544 56.2897 13.7226L55.7238 15.301L56.34 16.9703C56.679 17.8884 56.9744 18.6885 56.9966 18.7482C57.0282 18.8335 56.8492 18.8517 56.1648 18.8328L55.2929 18.8087L54.8758 17.4977C54.5208 16.3819 54.4326 16.1827 54.2832 16.1597C54.1093 16.1329 54.1077 16.145 54.1077 17.4918V18.851H53.3803H52.6529V15.4678Z" fill="white"/>
</svg>
