<svg width="60" height="30" viewBox="0 0 60 30" fill="none" xmlns="http://www.w3.org/2000/svg">
<path d="M4.18443 13.1639H1V11.2046H9.68763V13.1678H6.5032V18.5783H4.18443V13.1639Z" fill="white"/>
<path d="M10.5069 18.5591V11.2163H12.8257V18.5591H10.5069Z" fill="white"/>
<path d="M20.3656 15.2354V11.2046H22.4988V18.5473H20.5201L16.5473 14.4934V18.5589H14.4141V11.2162H16.4855L20.3656 15.2354Z" fill="white"/>
<path d="M26.3595 18.5591H24.1181V11.2163H26.3595V13.9834H26.9779L29.6831 11.2163H32.4965L28.9102 14.7408L32.6356 18.5745H29.6483L26.974 15.792H26.3557L26.3595 18.5591Z" fill="white"/>
<path d="M42.1078 14.8955C42.1078 17.0906 40.2992 18.791 37.3003 18.791C34.3013 18.791 32.4772 17.0906 32.4772 14.8955C32.4772 12.7004 34.2859 11 37.3003 11C40.3147 11 42.1078 12.7004 42.1078 14.8955ZM39.7582 14.8955C39.7582 13.6898 38.7843 12.8086 37.3003 12.8086C35.8163 12.8086 34.8424 13.6898 34.8424 14.8955C34.8424 16.1013 35.8008 16.9979 37.3003 16.9979C38.7997 16.9979 39.7582 16.1013 39.7582 14.8955Z" fill="white"/>
<path d="M45.4429 13.0713V14.4007H50.3896V15.9466H45.4429V18.5591H43.2015V11.2163H50.5751V13.0868L45.4429 13.0713Z" fill="white"/>
<path d="M53.8601 13.0713V14.4007H58.8068V15.9466H53.8601V18.5591H51.6263V11.2163H59V13.0868L53.8601 13.0713Z" fill="white"/>
</svg>
