<svg width="60" height="30" viewBox="0 0 60 30" fill="none" xmlns="http://www.w3.org/2000/svg">
<path d="M45.5046 12.5787L47.4883 11.1147H40.847V19.8839H47.4883V18.42H42.7445V16.181H46.7983V14.7171H42.7445V12.5787H45.5046Z" fill="white"/>
<path d="M35.8301 14.5305H33.5301V12.5787H37.2101L39.1939 11.1147H31.6325V19.8839H35.5857C37.7995 19.8839 39.0789 18.8792 39.0789 17.1283C39.0789 15.4491 37.9288 14.5305 35.8301 14.5305ZM35.5138 18.42H33.5301V15.9945H35.5138C36.7213 15.9945 37.282 16.3963 37.282 17.2144C37.282 18.0325 36.6782 18.42 35.5138 18.42Z" fill="white"/>
<path d="M52.8646 11.1147H49.2565V19.8839H51.154V17.401H52.879C55.179 17.401 56.6165 16.1954 56.6165 14.2579C56.6165 12.3203 55.179 11.1147 52.8646 11.1147ZM52.8215 15.9371H51.1396V12.5787H52.8215C54.0434 12.5787 54.7046 13.1814 54.7046 14.2579C54.7046 15.3343 54.0434 15.9371 52.8215 15.9371Z" fill="white"/>
<path d="M28.3838 17.9895C27.8806 18.2622 27.32 18.4057 26.745 18.4057C25.0344 18.4057 23.7981 17.1858 23.7981 15.5066C23.7981 13.8274 25.0344 12.6074 26.745 12.6074C27.3631 12.5931 27.9669 12.794 28.47 13.1528L29.8357 12.1482L29.7494 12.0621C28.9588 11.3588 27.895 11 26.6875 11C25.3794 11 24.1862 11.4449 23.3237 12.2486C22.4612 13.0811 21.9725 14.2436 22.0012 15.4492C21.9868 16.6691 22.4612 17.846 23.3237 18.7071C24.2293 19.5539 25.4369 20.0275 26.6731 19.9988C28.0388 19.9988 29.2319 19.5251 30.0369 18.664L28.815 17.7598L28.3838 17.9895Z" fill="white"/>
<path d="M18.1459 9.51123C18.5722 10.061 18.9274 10.6639 19.2294 11.3023L11.0232 17.3496L7.57736 15.186V12.5969L11.0055 14.7427L18.1459 9.51123Z" fill="white"/>
<path d="M4.07818 15.0087C4.07818 14.8845 4.07818 14.7781 4.09595 14.654L2.01776 14.5476C2.01776 14.6895 2 14.8491 2 14.991C2 17.4737 3.01245 19.7259 4.64658 21.3574L6.12084 19.8855C4.85972 18.6441 4.07818 16.9239 4.07818 15.0087Z" fill="white"/>
<path d="M11.0055 8.09292C11.1298 8.09292 11.2364 8.09292 11.3607 8.11065L11.4673 6.0358C11.3252 6.0358 11.1653 6.01807 11.0232 6.01807C8.53651 6.01807 6.2807 7.02889 4.64658 8.6604L6.12084 10.1323C7.3642 8.87321 9.1049 8.09292 11.0055 8.09292Z" fill="white"/>
<path d="M11.0055 21.9251C10.8811 21.9251 10.7745 21.9251 10.6502 21.9074L10.5436 23.9822C10.6857 23.9822 10.8456 24 10.9877 24C13.4744 24 15.7302 22.9892 17.3643 21.3576L15.8901 19.8857C14.6467 21.1626 12.9238 21.9251 11.0055 21.9251Z" fill="white"/>
<path d="M14.9131 9.29848L16.6716 8.00392C15.1263 6.76255 13.1547 6 11.0054 6V8.07485C12.462 8.09259 13.8119 8.53593 14.9131 9.29848Z" fill="white"/>
<path d="M20.0287 15.0088C20.0287 14.459 19.9754 13.927 19.8866 13.395L17.9505 14.8315C17.9505 14.8847 17.9505 14.9556 17.9505 15.0088C17.9505 17.0482 17.0624 18.8748 15.6591 20.1339L17.0624 21.6767C18.8741 20.0452 20.0287 17.6511 20.0287 15.0088Z" fill="white"/>
<path d="M11.0055 21.9251C8.96282 21.9251 7.13331 21.0384 5.87219 19.6375L4.32687 21.0384C5.97876 22.865 8.35891 24 11.0055 24V21.9251Z" fill="white"/>
<path d="M6.36951 9.8839L4.9663 8.34106C3.13678 9.99031 2 12.3666 2 15.009H4.07818C4.07818 12.9873 4.9663 11.143 6.36951 9.8839Z" fill="white"/>
</svg>
