<svg width="60" height="30" viewBox="0 0 60 30" fill="none" xmlns="http://www.w3.org/2000/svg">
<path fill-rule="evenodd" clip-rule="evenodd" d="M29.9343 24.4434C27.6049 26.648 24.4604 28 21 28C13.8203 28 8 22.1797 8 15C8 7.8203 13.8203 2 21 2C24.462 2 27.608 3.35329 29.9377 5.55974C26 7.5 21.5 18 29.9343 24.4434ZM19.636 17.8776H18.1137L19.0192 13.3589L16.9326 17.8776H15.5437L15.29 13.3856L14.3823 17.8776H13L14.1811 12H16.5586L16.6832 15.6388L18.3608 12H20.8367L19.636 17.8776ZM23.0057 17.8019H24.2115L24.2199 17.6864L24.2449 17.5332L24.2823 17.3099L24.3323 17.0299L24.6364 15.4688C24.7343 14.9788 24.7551 14.8142 24.7551 14.5966C24.7551 13.7527 24.097 13.3061 22.8495 13.3061C22.3142 13.3061 21.8352 13.3686 21.1125 13.5389L20.9105 14.5285L21.0417 14.5001L21.2437 14.4528C21.5666 14.3771 22.0352 14.3298 22.4496 14.3298C23.1265 14.3298 23.3806 14.4376 23.3806 14.729C23.3806 14.8085 23.3701 14.8709 23.3243 15.0147C23.1077 14.992 22.8974 14.9807 22.7328 14.9807C21.1209 14.9807 20.1837 15.6051 20.1837 16.676C20.1837 17.3875 20.7231 17.8776 21.5103 17.8776C22.1768 17.8776 22.6662 17.7073 23.0327 17.3459L23.0057 17.8019ZM23.1535 15.8416C23.0015 15.8265 22.9349 15.8227 22.8286 15.8227C22.006 15.8227 21.5895 16.0478 21.5895 16.4925C21.5895 16.7669 21.7936 16.9409 22.1101 16.9409C22.7016 16.9428 23.1285 16.4925 23.1535 15.8416Z" fill="white"/>
<path fill-rule="evenodd" clip-rule="evenodd" d="M27.9196 17.8775C27.2218 17.8775 26.6652 17.7571 26.2552 17.5208C26.7874 20.0635 28.1244 22.2001 30 24C31.845 22.2295 33.1687 20.1333 33.7181 17.6452C33.3101 17.8018 32.7571 17.8776 32.0502 17.8776C31.8339 17.8776 31.5305 17.8662 31.1355 17.8416C30.945 17.8302 30.7992 17.817 30.7028 17.8037L30.3994 17.7583L30.3265 17.7488L30.5546 16.7338C31.0861 16.8531 31.547 16.908 32.0408 16.908C32.6946 16.908 32.9909 16.7849 32.9909 16.5103C32.9909 16.3096 32.8874 16.2452 32.2172 16.0236C31.3401 15.7358 30.9544 15.3533 30.9544 14.7965C30.9497 13.9841 31.5893 13.308 33.44 13.3062C33.5656 13.3062 33.7213 13.3105 33.8889 13.3181C33.4953 10.4024 32.0784 7.99453 30 6C27.7222 8.1859 26.2389 10.8682 26.0264 14.1715C26.4896 13.6326 27.1807 13.3061 27.9874 13.3061C29.2039 13.3061 29.9796 13.9256 29.9796 14.8971C29.9796 15.219 29.9266 15.5334 29.7973 15.9778H26.8642C26.8536 16.0456 26.8493 16.0757 26.8493 16.1152C26.8493 16.6236 27.288 16.8815 28.1442 16.8815C28.672 16.8815 29.1488 16.7968 29.6765 16.6047L29.4328 17.7005C28.9263 17.821 28.4367 17.8794 27.9196 17.8775ZM34.7359 13.3767C34.7599 13.5287 34.7802 13.68 34.797 13.8306L34.898 13.3933C34.8468 13.3876 34.7925 13.3821 34.7359 13.3767ZM33.9844 14.3608C33.7978 14.351 33.6226 14.3458 33.4729 14.3458C32.9368 14.3458 32.6616 14.4689 32.6616 14.7056C32.6616 14.9101 32.7439 14.9594 33.4377 15.1828C33.656 15.2531 33.8403 15.3293 33.9935 15.4146C33.9978 15.2774 34 15.1392 34 15C34 14.7844 33.9948 14.5713 33.9844 14.3608ZM28.6465 15.0948C28.655 15.0044 28.6592 14.9291 28.6592 14.8707C28.6592 14.5149 28.4007 14.3059 27.9599 14.3059C27.4894 14.3059 27.1545 14.5864 27.0189 15.091L28.6465 15.0948Z" fill="white"/>
<path fill-rule="evenodd" clip-rule="evenodd" d="M52 15C52 22.1797 46.1797 28 39 28C35.5403 28 32.3963 26.6485 30.067 24.4447C32.4151 22.494 35.3208 18.5244 34.797 13.8306C34.7802 13.68 34.7599 13.5287 34.7359 13.3767C34.3443 10.8957 32.9777 8.22768 30.0639 5.55828C32.3934 3.3527 35.5387 2 39 2C46.1797 2 52 7.8203 52 15ZM35.9509 17.8776C36.2585 17.8776 36.5433 17.831 36.9083 17.7238L37.0841 16.6822C36.9943 16.7126 36.8758 16.7267 36.7248 16.7267C36.4076 16.7267 36.27 16.6215 36.27 16.3788C36.27 16.3364 36.2777 16.2716 36.2929 16.1847L36.6446 14.2228H37.3268L37.5102 13.08H36.8318L37.0229 12H35.6986L35.0814 15.59L35.0184 15.9622L34.9381 16.4213C34.9113 16.571 34.898 16.7126 34.898 16.844C34.898 17.5135 35.2687 17.8776 35.9509 17.8776ZM41.4286 13.3937C41.3268 13.3574 41.2877 13.3505 41.2684 13.3472C41.2639 13.3464 41.2605 13.3458 41.2576 13.345C41.1776 13.3295 41.1343 13.3198 41.1278 13.3178C41.0824 13.31 41.0305 13.3062 40.9764 13.3062C40.4809 13.3062 40.1261 13.5064 39.663 14.0412L39.795 13.3567H38.4298L37.5102 17.8776H39.0183C39.557 15.1126 39.7885 14.6284 40.5134 14.6284C40.5674 14.6284 40.6302 14.6323 40.7038 14.6401L40.8812 14.6731L41.4286 13.3937ZM43.1091 18.5306C44.6122 18.5306 45.7421 17.7983 45.9613 16.1526C46.0014 15.8652 46.0014 15.8439 45.9993 15.5394C45.9993 14.2833 45.1919 13.3062 43.6678 13.3062C41.9118 13.3062 40.7755 14.4941 40.7755 16.2484C40.7755 17.5045 41.448 18.5306 43.1091 18.5306ZM44.4499 15.5182C44.4499 15.0008 44.2433 14.5111 43.6404 14.5111C42.892 14.5111 42.4261 15.4117 42.4261 16.2079C42.4261 16.8786 42.7444 17.3299 43.2693 17.3193C43.5877 17.3193 44.2665 16.8786 44.4014 16.1079C44.433 15.9312 44.4499 15.7332 44.4499 15.5182Z" fill="white"/>
</svg>
