<svg width="60" height="30" viewBox="0 0 60 30" fill="none" xmlns="http://www.w3.org/2000/svg">
<path fill-rule="evenodd" clip-rule="evenodd" d="M49.5 8H40.2C40.7 11.1 43.7 14 47 14H54.4C54.5 13.7 54.5 13.3 54.5 13C54.5 10.2 52.3 8 49.5 8Z" fill="white"/>
<path fill-rule="evenodd" clip-rule="evenodd" d="M41 14.5V22H45.5V18H49.5C51.7 18 53.6 16.5 54.2 14.5H41Z" fill="white"/>
<path fill-rule="evenodd" clip-rule="evenodd" d="M25 8V22H29C29 22 30 22 30.5 21C33.2 15.6 34 14 34 14H34.5V22H39V8H35C35 8 34 8.1 33.5 9C31.2 13.6 30 16 30 16H29.5V8H25Z" fill="white"/>
<path fill-rule="evenodd" clip-rule="evenodd" d="M6 22V8H10.5C10.5 8 11.8 8 12.5 10C14.3 15.3 14.5 16 14.5 16C14.5 16 14.9 14.7 16.5 10C17.2 8 18.5 8 18.5 8H23V22H18.5V14.5H18L15.5 22H13.5L11 14.5H10.5V22H6Z" fill="white"/>
</svg>
