<svg width="60" height="30" viewBox="0 0 60 30" fill="none" xmlns="http://www.w3.org/2000/svg">
<path fill-rule="evenodd" clip-rule="evenodd" d="M21.6202 3.00005C24.6277 3.00005 27.3898 4.03626 29.5579 5.76712C27.7338 7.38356 26.3732 9.50727 25.7019 11.9144H26.754C27.3736 9.92861 28.4991 8.1606 29.9827 6.75851C31.4663 8.1606 32.5918 9.92861 33.2114 11.9144H34.2801C33.5994 9.51995 32.2369 7.40891 30.4141 5.80302C32.5864 4.05019 35.3594 3 38.3798 3C45.3498 3 51 8.59623 51 15.5C51 22.4038 45.3498 28 38.3798 28C35.3091 28 32.4935 26.9146 30.3054 25.109C32.2628 23.4226 33.7058 21.1618 34.3657 18.59H33.3365C32.7506 20.7486 31.5712 22.6685 29.9827 24.1698C28.3941 22.6685 27.2164 20.7486 26.6304 18.59H25.6508C26.3145 21.1246 27.7387 23.3537 29.6665 25.0242C27.4824 26.8075 24.6779 27.8793 21.6202 27.8793C14.6502 27.8793 9 22.31 9 15.4397C9 8.56936 14.6502 3.00005 21.6202 3.00005ZM34.4414 15.5652C34.4414 13.1001 35.9166 11.7872 37.433 11.7872C38.1158 11.7872 38.9116 12.1084 38.9116 12.1084L38.6975 13.4977C38.6975 13.4977 38.1599 13.1226 37.4907 13.1226C36.5981 13.1226 35.7964 13.974 35.7964 15.5212C35.7964 16.2839 36.1703 16.9936 37.1021 16.9936C37.5444 16.9936 38.1888 16.6708 38.1888 16.6708L37.955 18.0992C37.955 18.0992 37.2489 18.2787 36.8057 18.2785C35.2382 18.2785 34.4414 17.1999 34.4414 15.5652ZM48.8629 11.9111L50.1817 11.9079L49.1774 18.0192H47.8964L47.954 17.5611C47.954 17.5611 47.5172 18.0975 46.7291 18.0975C45.6334 18.0975 45.099 17.0648 45.099 16.012C45.099 14.381 46.1031 12.9628 47.3086 12.9628C48.0839 12.9628 48.5797 13.6298 48.5797 13.6298L48.8629 11.9111ZM11.3578 18.0518L12.4082 11.9258L14.3264 11.9258L14.3939 15.6842L15.6897 11.9258H17.7708L16.7335 18.0518H15.3883L16.1375 13.4325L14.4482 18.0518H13.5426L13.4241 13.4325L12.6239 18.0518H11.3578ZM24.8704 17.0735C24.8704 16.5609 25.6074 12.3521 25.636 12.3236H26.9334L26.8017 13.0769H27.4488L27.2825 14.2885H26.5959L26.232 16.524C26.2033 16.7004 26.2533 16.9382 26.7046 16.9382C26.7659 16.9382 26.8315 16.9276 26.8929 16.9176C26.9468 16.9089 26.9974 16.9007 27.0388 16.9007L26.8758 17.9964C26.8758 17.9964 26.8666 17.999 26.8556 18.002C26.8463 18.0045 26.8355 18.0075 26.8281 18.0095C26.8227 18.011 26.817 18.0127 26.8112 18.0144C26.806 18.0159 26.8006 18.0175 26.7951 18.0192L26.7948 18.0192C26.6279 18.0685 26.3087 18.1626 25.9044 18.166C25.3 18.1715 24.8704 17.8325 24.8704 17.0735ZM39.3792 13.2286C39.3792 13.2286 40.0563 12.94 40.94 12.94C41.3963 12.94 42.7102 12.9891 42.71 14.5168L42.2029 18.1171H41.0684L41.1113 17.6181C41.1086 17.6184 41.1 17.6282 41.0852 17.6451C40.9828 17.762 40.5832 18.2182 39.7891 18.2182C39.3131 18.2182 38.5444 17.9558 38.5444 16.8094C38.5444 15.3543 39.7153 14.8706 40.8297 14.8706C41.0051 14.8706 41.3846 14.9032 41.3846 14.9032C41.3846 14.9032 41.4274 14.8142 41.4274 14.5738C41.4274 14.1782 41.0758 14.1238 40.5959 14.1238C39.7507 14.1238 39.1915 14.3537 39.1915 14.3537L39.3792 13.2286ZM18.0918 13.2351C18.0918 13.2351 18.7723 12.9465 19.6593 12.9465C20.1172 12.9465 21.4358 12.9965 21.4358 14.5233L20.9271 18.122H19.7877L19.8306 17.623C19.8279 17.6233 19.8192 17.6331 19.8041 17.6502C19.701 17.7674 19.2999 18.2231 18.5035 18.2231C18.0257 18.2231 17.2555 17.9601 17.2555 16.8143C17.2555 15.3601 18.4303 14.8771 19.549 14.8771C19.7249 14.8771 20.1055 14.9098 20.1055 14.9098C20.1055 14.9098 20.1483 14.8206 20.1483 14.5804C20.1483 14.1849 19.7952 14.1303 19.3135 14.1303C18.4653 14.1303 17.9042 14.3603 17.9042 14.3603L18.0918 13.2351ZM21.7635 14.6277C21.7635 13.3273 22.7308 12.9465 23.6833 12.9465C24.4191 12.9465 24.8704 13.0476 24.8704 13.0476L24.7091 14.1842C24.7091 14.1842 24.0097 14.1271 23.8282 14.1271C23.371 14.1271 23.1218 14.228 23.1218 14.5477C23.1218 14.7969 23.3528 14.9017 23.6355 15.03C24.0815 15.2324 24.6563 15.4933 24.6563 16.4718C24.6563 18.1233 23.1102 18.1118 22.7431 18.1091C22.7374 18.1091 22.7319 18.109 22.7268 18.109C22.7202 18.1089 22.7142 18.1089 22.7086 18.1089C21.6968 18.1089 21.3393 17.9785 21.2726 17.9542C21.2681 17.9525 21.2649 17.9514 21.263 17.9508L21.4358 16.8257C21.4362 16.8238 21.4569 16.83 21.4943 16.8412C21.6496 16.8878 22.0944 17.0214 22.5785 17.0214C22.9256 17.0214 23.3754 16.9872 23.3754 16.5729C23.3754 16.3286 23.1257 16.2035 22.8229 16.0518C22.3563 15.8181 21.7635 15.5212 21.7635 14.6277ZM27.3335 15.9484C27.3335 14.3563 28.3134 12.9468 29.6369 12.9465C31.0821 12.9465 31.514 13.991 31.514 14.8478C31.514 15.1912 31.3411 16.0332 31.3411 16.0332H28.6655C28.6655 16.0332 28.4179 17.0752 29.8312 17.0752C30.4946 17.0752 31.2291 16.7556 31.2291 16.7556L30.9986 18.0095C30.9986 18.0095 30.5729 18.2231 29.6073 18.2231C28.5613 18.2231 27.3335 17.7861 27.3335 15.9484ZM33.3909 13.7944C33.3909 13.7944 33.8336 13.0003 34.4299 13.0003C34.6038 13.0003 34.6867 13.0183 34.6867 13.0183C34.51 13.3703 34.353 13.6916 34.1911 14.5233C33.4288 14.26 33.2468 15.3995 32.9893 17.0116C32.9344 17.3551 32.8761 17.7201 32.8081 18.0975H31.4399L32.2713 13.0656H33.5094L33.3909 13.7944ZM44.4767 13.7944C44.4767 13.7944 44.9194 13.0003 45.5156 13.0003C45.6894 13.0003 45.7725 13.0183 45.7725 13.0183C45.5959 13.3703 45.439 13.6916 45.2768 14.5233C44.514 14.2598 44.3312 15.4018 44.0728 17.0165C44.0181 17.3586 43.9599 17.7219 43.8922 18.0975H42.5256L43.3571 13.0656H44.5952L44.4767 13.7944Z" fill="white"/>
<path d="M47.5161 14.1793C47.9945 14.1791 48.2406 14.4992 48.2406 15.2522C48.2406 15.9354 47.8926 16.8485 47.172 16.8485C46.6937 16.8485 46.4689 16.4573 46.4689 15.8441C46.4689 14.8413 46.9322 14.1793 47.5161 14.1793Z" fill="white"/>
<path d="M41.209 15.9188C41.2053 15.9183 41.206 15.9195 41.2232 15.9223C41.2479 16.1464 41.0865 17.1975 40.3061 17.1975C39.9037 17.1975 39.8007 16.8806 39.8007 16.6936C39.8007 16.329 39.9924 15.8913 40.9417 15.8913C41.1153 15.8916 41.1664 15.9065 41.1987 15.9159C41.2003 15.9163 41.2018 15.9168 41.2033 15.9172L41.2038 15.9173C41.2055 15.9179 41.2073 15.9183 41.209 15.9188Z" fill="white"/>
<path d="M30.2445 14.9896H28.7643C28.7643 14.9029 28.9043 14.0814 29.6303 14.0814C30.3214 14.0814 30.2609 14.7916 30.2467 14.959C30.2454 14.9737 30.2445 14.9842 30.2445 14.9896Z" fill="white"/>
<path d="M19.9442 15.9272C19.9689 16.1512 19.8069 17.2007 19.0238 17.2007C18.6198 17.2007 18.515 16.8853 18.515 16.6985C18.515 16.3341 18.7078 15.8962 19.661 15.8962C19.8355 15.8964 19.8876 15.9117 19.9201 15.9212C19.9253 15.9227 19.93 15.9241 19.9346 15.9252C19.9378 15.926 19.9409 15.9267 19.9442 15.9272Z" fill="white"/>
</svg>
