<svg width="60" height="30" viewBox="0 0 60 30" fill="none" xmlns="http://www.w3.org/2000/svg">
<path d="M20.1499 9.14529H9.3409L10.1196 7H20.9286L20.1499 9.14529ZM19.7606 10.2179H8.94669L8.16801 12.3632H18.977L19.7606 10.2179ZM18.5925 13.4261H7.77868L7 15.5714H17.7993L18.5925 13.4261Z" fill="white"/>
<path d="M45.6032 20.9125H47.5253C47.7985 20.9455 48.0755 20.91 48.3319 20.809C48.5883 20.7081 48.8163 20.5449 48.9957 20.3338C49.2593 19.9846 49.3921 19.5522 49.3705 19.1133C49.3885 18.834 49.3378 18.5545 49.2229 18.2999C49.1081 18.0454 48.9326 17.8236 48.7122 17.6545C48.3554 17.4182 47.9311 17.3087 47.5061 17.3433H45.6032V20.9125ZM43.0804 23.0666V10.2194H51.3406L50.615 12.3736H45.6032V15.2183H47.6454C49.2936 15.2183 50.1489 15.617 50.74 16.1276C51.1625 16.5063 51.4949 16.9768 51.7121 17.504C51.9293 18.0312 52.0257 18.6013 51.9941 19.1716C52.0266 19.7857 51.9069 20.3983 51.6459 20.9537C51.3849 21.5091 50.9909 21.9897 50.4997 22.3518C49.7068 22.9062 48.8755 23.0618 47.1841 23.0618L43.0804 23.0666ZM35.7669 23.0666V12.3687H32.0957V10.2194H42.2876L41.562 12.3736H38.3136V23.0715L35.7669 23.0666ZM25.5942 15.3641H27.0357C27.3306 15.3845 27.6268 15.3616 27.9151 15.2961C28.215 15.1991 28.4734 15.002 28.648 14.7369C28.8226 14.4719 28.9031 14.1547 28.8762 13.8373C28.9162 13.5219 28.8404 13.2026 28.6633 12.94C28.4861 12.6774 28.2199 12.4897 27.9151 12.4125C27.6003 12.3385 27.2769 12.3091 26.9541 12.325H25.5942V15.3641ZM25.5942 17.5864V20.9562H27.3529C27.8376 21.0123 28.3249 20.8764 28.7128 20.5769C28.8915 20.4093 29.0316 20.2039 29.1229 19.9753C29.2143 19.7467 29.2547 19.5005 29.2414 19.2543C29.249 18.8609 29.131 18.4755 28.905 18.1553C28.5302 17.6691 28.0689 17.5767 27.2808 17.5767L25.5942 17.5864ZM29.6594 16.2297V16.2735C30.0878 16.4404 30.4882 16.6733 30.8463 16.964C31.2083 17.268 31.4944 17.654 31.6814 18.0908C31.8684 18.5276 31.9511 19.0028 31.9227 19.478C31.9227 21.2334 31.0001 22.5026 29.4864 22.8819C28.8831 23.0311 28.2616 23.0917 27.6412 23.0618H23.0714V10.2194H27.1367C27.7823 10.1955 28.4284 10.256 29.0588 10.3994C30.5292 10.7981 31.495 11.8241 31.495 13.4434C31.507 13.8295 31.4412 14.2139 31.3016 14.5734C31.162 14.9329 30.9515 15.2599 30.6829 15.5343C30.3977 15.8274 30.058 16.0604 29.6834 16.22L29.6594 16.2297Z" fill="white"/>
</svg>
