<svg width="60" height="30" viewBox="0 0 60 30" fill="none" xmlns="http://www.w3.org/2000/svg">
<path d="M39.5315 9.5325C38.5554 9.17328 37.5237 8.99302 36.4849 9.00021C33.1254 9.00021 30.7527 10.7095 30.7359 13.1631C30.7149 14.9657 32.422 15.9815 33.7133 16.5838C35.0382 17.203 35.4812 17.5932 35.477 18.1467C35.4686 18.9886 34.4188 19.3704 33.4424 19.3704C32.1007 19.3704 31.3679 19.1816 30.2404 18.7087L29.8226 18.5115L29.3459 21.3362C30.1627 21.6798 31.6346 21.9746 33.1548 22C36.7263 22 39.0612 20.3013 39.0885 17.6908C39.1179 16.2508 38.194 15.1629 36.2497 14.2637C35.0676 13.6806 34.3348 13.2904 34.3348 12.6987C34.3348 12.1749 34.9626 11.615 36.2749 11.615C37.1483 11.5937 38.0163 11.7592 38.8218 12.1006L39.1368 12.2427L39.6134 9.51341L39.5315 9.5325V9.5325ZM48.2494 9.22924H45.6248C44.808 9.22924 44.1928 9.45615 43.8359 10.2747L38.7882 21.824H42.3598L43.0737 19.9302L47.4326 19.9345C47.5355 20.3777 47.8505 21.824 47.8505 21.824H51L48.2494 9.22924V9.22924ZM25.9046 9.12321H29.3082L27.1791 21.7243H23.7797L25.9046 9.11896V9.12321V9.12321ZM17.2644 16.0684L17.6171 17.818L20.943 9.22924H24.5482L19.1919 21.807H15.5951L12.6556 11.1569C12.6079 10.9813 12.4961 10.8305 12.3427 10.7349C11.2832 10.1821 10.1606 9.76265 9 9.48584L9.04619 9.22076H14.5243C15.2676 9.25045 15.866 9.48584 16.0654 10.2875L17.2623 16.0748V16.0684H17.2644ZM44.05 17.3536L45.4064 13.829C45.3896 13.8672 45.6857 13.1016 45.8579 12.6287L46.0909 13.7166L46.8783 17.3515H44.0479V17.3536H44.05Z" fill="white"/>
</svg>
