<svg width="60" height="30" viewBox="0 0 60 30" fill="none" xmlns="http://www.w3.org/2000/svg">
<path d="M22.6258 18.55C22.2721 18.6692 22.0388 18.6983 21.7609 18.6983C21.1863 18.6983 20.8679 18.4712 20.8679 17.8821C20.8679 17.2682 21.2724 17.0628 22.0668 17.0628C22.2607 17.0628 22.4516 17.0908 22.5407 17.1219V17.5617C22.5407 18.0356 22.5667 18.3467 22.6258 18.55ZM24.6678 19.2531C24.2436 18.6091 24.1326 18.2295 24.1326 17.4175V15.7686C24.1326 14.8808 24.0289 14.5604 23.7946 14.2368C23.4679 13.7784 22.9234 13.5793 21.9226 13.5793C21.2143 13.5793 20.5267 13.656 19.861 13.8261L20.1016 14.998C20.5516 14.9348 21.0235 14.8808 21.3564 14.8808C22.4194 14.8808 22.5407 15.0343 22.5407 15.8318V16.1295C22.3043 16.0662 22.0388 16.0206 21.7308 16.0206C20.1306 16.0206 19.2854 16.8036 19.2854 18.0999C19.2854 19.3153 20.1887 19.978 21.289 19.978C21.6997 19.978 22.129 19.9023 22.4692 19.7634C22.6745 19.6742 22.7637 19.6213 23.0292 19.4491C23.1889 19.6814 23.5094 19.9189 23.64 19.9635L24.6678 19.2531ZM40.4966 18.55C40.1409 18.6692 39.9117 18.6983 39.6317 18.6983C39.055 18.6983 38.7325 18.4712 38.7325 17.8821C38.7325 17.2682 39.1422 17.0628 39.9386 17.0628C40.1326 17.0628 40.3244 17.0908 40.4115 17.1219V17.5617C40.4115 18.0356 40.4364 18.3467 40.4966 18.55ZM42.5406 19.2531C42.1134 18.6091 42.0045 18.2295 42.0045 17.4175V15.7686C42.0045 14.8808 41.8987 14.5604 41.6622 14.2368C41.3397 13.7784 40.7942 13.5793 39.7903 13.5793C39.083 13.5793 38.3913 13.656 37.7255 13.8261L37.963 14.998C38.4141 14.9348 38.887 14.8808 39.2293 14.8808C40.286 14.8808 40.4115 15.0343 40.4115 15.8318V16.1295C40.1751 16.0662 39.9117 16.0206 39.5974 16.0206C37.9952 16.0206 37.1468 16.8036 37.1468 18.0999C37.1468 19.3153 38.0522 19.978 39.1577 19.978C39.5736 19.978 39.9988 19.9023 40.3358 19.7634C40.5443 19.6742 40.6304 19.6213 40.8958 19.4491C41.0576 19.6814 41.3781 19.9189 41.5098 19.9635L42.5406 19.2531ZM55 19.8401C55 19.8401 54.1226 17.9703 53.908 17.5451C53.6663 17.0659 53.4423 16.7351 52.9487 16.6158V16.5889C53.2795 16.5256 53.5429 16.3255 53.8312 15.7136C54.104 15.1173 54.1849 14.9887 54.3456 14.8466C54.5032 14.7056 54.719 14.7564 54.719 14.7564L54.7998 13.654C54.5707 13.6229 54.3166 13.6218 54.0542 13.6363C53.6186 13.6623 53.3936 13.7878 53.1789 14.0035C53.0109 14.1684 52.8968 14.4152 52.7558 14.6983C52.6064 15.0073 52.4882 15.2562 52.3327 15.5705C52.1781 15.893 52.1055 16.0382 51.6897 16.0382H51.419V11.1546H49.8167V19.8401H51.419V17.3428L51.6378 17.3387C52.0972 17.3387 52.1781 17.4538 52.4208 17.9381C52.705 18.5158 53.2494 19.8401 53.2494 19.8401H55ZM9.86256 19.8401H11.7117L8.91468 11.2998C8.62015 11.2013 8.25614 11.1401 7.86724 11.1401C7.44307 11.1401 7.29166 11.1961 6.9598 11.2998L4 19.8401H5.77443C5.77443 19.8401 6.01399 19.0913 6.29607 18.1632H9.36166C9.63544 19.0903 9.86256 19.8401 9.86256 19.8401ZM6.74616 16.731C6.74616 16.731 7.25847 15.0167 7.33833 14.7502C7.54159 14.0595 7.85064 12.9622 7.85064 12.9622H7.90146C7.90146 12.9622 8.18769 14.0989 8.37436 14.7377C8.44489 14.9918 8.93438 16.731 8.93438 16.731H6.74616ZM27.3973 15.754C26.8321 15.754 26.3727 16.2155 26.3727 16.7807C26.3727 17.3501 26.8321 17.8085 27.3973 17.8085C27.9636 17.8085 28.4209 17.3501 28.4209 16.7807C28.4209 16.2155 27.9636 15.754 27.3973 15.754ZM13.9071 11.1546H12.3007V19.8391H13.9071V11.1546ZM45.823 14.9596C46.7107 14.9783 46.8206 15.1619 46.8206 15.9065V19.8401H48.4125V15.7686C48.4125 14.8808 48.3088 14.5604 48.0724 14.2368C47.7457 13.7784 47.1037 13.5793 46.0179 13.5793C44.9435 13.5793 44.2591 13.6934 43.3786 13.9558V19.8401H44.9871V15.0343C45.4092 14.9731 45.4838 14.9596 45.823 14.9596ZM17.8801 11.0001C16.8763 11.0001 16.3297 11.1992 16.0082 11.6566C15.7718 11.9812 15.667 12.3089 15.667 13.1987V13.9558H14.8695V15.2542H15.667V19.8401H17.26L17.2558 15.2542H18.8436V13.9558H17.2558L17.26 13.2599C17.26 12.4634 17.3813 12.3089 18.4454 12.3089C18.5605 12.3089 18.6901 12.3151 18.828 12.3255L19.079 11.0779C18.686 11.026 18.2836 11.0001 17.8801 11.0001ZM30.661 11.081C31.2075 11.0489 32.4292 11.0032 33.1956 11.0032C33.3356 11.0032 33.4808 11.0043 33.626 11.0115C35.1328 11.0115 35.9967 12.1087 35.9967 13.3968C35.9967 14.2731 35.5954 14.8549 34.6548 15.2013C35.7613 15.446 36.341 16.3099 36.341 17.3667C36.341 18.1424 36.1222 18.7584 35.7209 19.1784C35.2003 19.6908 34.4121 19.978 33.3626 19.978C32.4292 19.978 31.2573 19.949 30.661 19.9137V11.081ZM33.1956 12.5039C32.9301 12.5039 32.6014 12.509 32.2757 12.5205V14.606H33.1966C33.5617 14.606 33.8552 14.5044 34.0553 14.3084C34.2462 14.1238 34.3457 13.8624 34.3457 13.5523C34.3457 12.8855 33.9848 12.508 33.3138 12.5039H33.1956ZM33.2288 18.4805H33.2983C34.1352 18.4805 34.6475 18.0356 34.6537 17.1396C34.6454 16.8181 34.522 16.5215 34.3011 16.3068C34.0595 16.0641 33.7172 15.9376 33.3159 15.9376H32.2757V18.4712C32.5692 18.4774 32.8928 18.4784 33.2288 18.4805Z" fill="white"/>
</svg>
