<svg width="148" height="68" viewBox="0 0 148 68" fill="none" xmlns="http://www.w3.org/2000/svg">
<path d="M82.2455 53.9978C79.6253 53.0854 78.1237 51.083 77.3878 48.551C75.9602 43.6492 76.1665 38.7473 77.9615 33.9481C78.3885 32.8007 79.0648 31.7548 79.9474 30.9009C81.9333 28.9867 84.2755 28.5598 86.8649 29.3563C87.0999 29.4302 87.3503 29.5185 87.6592 29.6211V18.2839C87.6592 17.5624 87.7177 17.5182 88.4536 17.5039H90.6469C91.3386 17.5039 91.3684 17.5337 91.3828 18.21V53.0733C91.3828 53.3976 91.236 53.5885 90.8819 53.5587H90.8378C90.2927 53.5587 89.6749 53.7054 89.2336 53.4848C88.8067 53.2785 88.5562 52.6904 88.2771 52.3374L85.5101 53.9702L82.2422 53.9846L82.2455 53.9978ZM87.678 41.6467L87.7078 33.9481C87.7376 33.0942 87.4132 32.6683 86.6928 32.3727C86.4578 32.2844 86.2217 32.1663 85.9867 32.1079C84.5149 31.6666 83.3223 32.0339 82.454 33.2994C82.0414 33.8885 81.674 34.5505 81.4534 35.2279C80.1427 39.1445 80.1427 43.1328 81.0705 47.1366C81.1731 47.5636 81.3508 47.9751 81.5118 48.3722C82.571 50.8899 84.6915 51.6843 87.1793 50.5347C87.5478 50.3581 87.6946 50.1662 87.6946 49.7403L87.6802 41.6423L87.678 41.6467Z" fill="black"/>
<path d="M44.2931 14.0011C44.6174 14.2515 44.4553 14.5461 44.3516 14.8252L40.2441 26.0124L35.2794 39.6885C35.1745 39.9715 35.1196 40.2705 35.1172 40.5722V52.8185C35.1172 53.5544 35.1029 53.5544 34.367 53.5544C33.6013 53.5544 32.8356 53.5246 32.07 53.5687C31.5845 53.5831 31.408 53.422 31.4223 52.9354L31.4367 48.412V40.5413C31.4415 40.2199 31.3865 39.9004 31.2745 39.5991L23.2207 18.5333C23.1622 18.3711 23.0739 18.2388 23 18.092V17.7831C23.235 17.7092 23.4711 17.5922 23.7061 17.5922L26.2524 17.5779C26.2524 17.5779 27.0909 17.5779 27.3711 18.3723L33.3619 35.2567L33.6123 35.8602L33.8186 35.1828L34.9958 30.869L40.2441 14.6035C40.318 14.3972 40.4945 14.2207 40.6269 14.0298L44.292 14L44.2931 14.0011Z" fill="#E52620"/>
<path d="M45.6169 53.9977C41.9077 52.4818 40.8916 48.1096 41.1707 45.0469C41.2887 43.7815 41.5535 42.5734 42.0974 41.4105C43.717 37.9661 46.9849 36.6996 50.5043 38.1724L51.0935 38.4229C51.0494 36.5694 51.1078 34.7578 50.1226 33.1526C49.4607 32.0636 48.4302 31.6654 47.2376 32.1221C46.4278 32.431 45.6776 32.8723 44.9262 33.285C44.2345 33.6678 44.1021 33.6535 43.7634 32.9463L42.851 31.0045C42.6888 30.6801 42.7042 30.401 43.0716 30.2388C45.2208 29.3408 47.4295 28.6347 49.7994 29.076C52.2872 29.5327 53.7446 31.1667 54.2599 33.5508C54.5986 35.155 54.7453 36.8187 54.7751 38.4527L54.8049 52.9386C54.8049 53.4097 54.6582 53.5564 54.1716 53.616C52.9062 53.7782 52.0368 53.4395 51.8018 52.0714C51.7875 52.0129 51.7433 51.9534 51.6694 51.8066C50.8155 52.8216 49.7994 53.5586 48.5802 53.9999H45.6169V53.9977ZM51.0935 45.6956V42.794C51.0935 41.4392 50.9909 41.2936 49.71 40.8357C49.5992 40.7948 49.4861 40.7606 49.3713 40.7331C47.5619 40.2179 46.3925 40.7331 45.6908 42.4697C44.8369 44.6188 44.8369 46.8276 45.6467 48.9789C46.0152 49.9653 46.6617 50.7607 47.7815 50.9814C48.9145 51.202 49.8865 50.7751 50.7404 50.069C50.9313 49.9068 51.0792 49.5979 51.0792 49.3629L51.0935 45.6824V45.6956ZM101.528 53.9977C98.8496 53.232 97.1561 51.4216 96.1554 48.9039C95.8023 48.0059 95.5078 47.0637 95.3754 46.1215C94.7278 41.8816 95.0223 37.7146 96.6408 33.7119C97.1417 32.4608 97.8478 31.3123 98.8915 30.4021C101.423 28.1956 104.809 28.6203 106.738 31.3587C107.709 32.7422 108.181 34.3044 108.49 35.9372C108.887 38.0423 108.887 40.1627 108.858 42.2523H99.0835C99.0835 43.0025 98.9809 43.8565 99.1133 44.6817C99.3041 45.785 99.5546 46.9191 99.9959 47.9496C100.834 49.9079 102.558 50.8953 104.691 50.7464C105.604 50.6879 106.501 50.5114 107.414 50.3492C107.841 50.2609 108.062 50.3636 108.136 50.7905C108.21 51.159 108.268 51.5264 108.401 51.8794C108.563 52.3362 108.401 52.601 107.988 52.7477L104.601 53.9834H101.512L101.528 53.9977ZM105.017 39.2945C105.031 39.1919 105.061 39.0738 105.047 38.9558C104.929 37.7201 104.856 36.4822 104.678 35.2598C104.531 34.3176 104.237 33.4063 103.619 32.6395C102.897 31.7569 101.793 31.683 101.013 32.5072C100.719 32.8161 100.424 33.1989 100.292 33.5961C99.9366 34.7081 99.6417 35.8384 99.4078 36.982C99.2313 37.8205 99.217 38.6744 99.1276 39.4997L105.016 39.2934L105.017 39.2945ZM124.994 30.027L120.106 40.7728C119.96 41.0818 119.944 41.3465 120.092 41.6709L124.773 52.6815C125.082 53.4031 124.964 53.5641 124.214 53.5641C123.508 53.5641 122.786 53.5343 122.079 53.5785C121.549 53.6083 121.269 53.3876 121.093 52.9165L118.089 44.8053L117.869 44.2161L117.472 45.4231L114.879 52.8757C114.702 53.3766 114.422 53.6259 113.864 53.5972C113.202 53.5674 112.54 53.5972 111.878 53.5829C111.128 53.5829 110.98 53.3479 111.275 52.6407L115.072 43.6899L116.087 41.2461C116.175 41.0111 116.19 40.6724 116.087 40.4518L111.715 30.4705C111.376 29.6905 111.494 29.514 112.348 29.514L114.483 29.4754C115.042 29.4456 115.321 29.6662 115.498 30.1671L118.177 37.3218C118.235 37.4983 118.309 37.6605 118.427 37.9396L119.281 35.5985L121.342 30.0634C121.489 29.6662 121.71 29.4599 122.166 29.4743L124.403 29.4886C124.594 29.4886 124.801 29.5625 124.993 29.5912V30.0038L124.994 30.027ZM63.0926 30.7496L66.7003 29.4103C67.9801 29.0418 69.2765 29.2338 70.4845 29.749C71.8526 30.3381 72.5587 31.4414 72.7518 32.8988C72.8102 33.3258 72.8257 33.7527 72.8257 34.1643V52.7279C72.8257 53.5961 72.8257 53.5961 71.9431 53.5961H69.8082C69.1904 53.5961 69.1165 53.5222 69.1165 52.89V35.08C69.1165 33.3589 68.2626 32.4597 66.526 32.3417C65.4073 32.2677 64.3768 32.5623 63.3762 33.0478C63.0375 33.2099 63.0816 33.4604 63.0816 33.7252V52.7014C63.0816 53.5994 63.0816 53.5994 62.1836 53.5994C61.4179 53.5994 60.6522 53.5851 59.8865 53.5994C59.5478 53.5994 59.3713 53.467 59.3857 53.114V30.3249C59.3857 29.5305 59.3857 29.5305 60.18 29.5305L62.477 29.5162C62.9481 29.5019 63.139 29.6629 63.0805 30.134L63.0949 30.7375L63.0926 30.7496Z" fill="black"/>
</svg>
