<svg width="25" height="24" viewBox="0 0 25 24" fill="none" xmlns="http://www.w3.org/2000/svg">
<path d="M10.0029 4.25722L10.9314 3.88583L10.9314 3.88583L10.0029 4.25722ZM11.0572 6.89286L10.1287 7.26425L10.1287 7.26425L11.0572 6.89286ZM10.7368 8.91597L9.96859 8.27579L9.96857 8.27582L10.7368 8.91597ZM10.1694 9.59688L10.9377 10.2371L10.9377 10.237L10.1694 9.59688ZM10.2914 12.2915L9.58426 12.9986L9.58428 12.9986L10.2914 12.2915ZM12.2085 14.2085L12.9157 13.5014L12.9156 13.5014L12.2085 14.2085ZM14.9031 14.3307L14.263 13.5624L14.2629 13.5625L14.9031 14.3307ZM15.5842 13.7633L16.2243 14.5316L16.2244 14.5315L15.5842 13.7633ZM17.6071 13.4429L17.9785 12.5144L17.9785 12.5144L17.6071 13.4429ZM20.2426 14.4971L19.8712 15.4256L19.8712 15.4256L20.2426 14.4971ZM21.4999 16.354L20.4999 16.354L20.4999 16.3541L21.4999 16.354ZM21.5 19.1053L22.5 19.1053L22.5 19.1053L21.5 19.1053ZM8.146 4C8.5549 4 8.92261 4.24895 9.07447 4.62861L10.9314 3.88583C10.4758 2.74685 9.37271 2 8.146 2V4ZM9.07447 4.62861L10.1287 7.26425L11.9857 6.52148L10.9314 3.88583L9.07447 4.62861ZM10.1287 7.26425C10.2652 7.60541 10.2037 7.99372 9.96859 8.27579L11.505 9.55616C12.2106 8.70954 12.3949 7.54445 11.9857 6.52147L10.1287 7.26425ZM9.96857 8.27582L9.40119 8.95673L10.9377 10.237L11.5051 9.55613L9.96857 8.27582ZM9.40121 8.9567C8.40808 10.1485 8.48691 11.9013 9.58426 12.9986L10.9985 11.5844C10.633 11.2189 10.6064 10.6346 10.9377 10.2371L9.40121 8.9567ZM9.58428 12.9986L11.5015 14.9157L12.9156 13.5014L10.9984 11.5844L9.58428 12.9986ZM11.5014 14.9157C12.5986 16.0128 14.3513 16.0922 15.5433 15.0989L14.2629 13.5625C13.8655 13.8936 13.2813 13.8671 12.9157 13.5014L11.5014 14.9157ZM15.5431 15.099L16.2243 14.5316L14.9441 12.995L14.263 13.5624L15.5431 15.099ZM16.2244 14.5315C16.5065 14.2964 16.8947 14.2349 17.2357 14.3714L17.9785 12.5144C16.9555 12.1052 15.7906 12.2896 14.944 12.9951L16.2244 14.5315ZM17.2357 14.3713L19.8712 15.4256L20.614 13.5687L17.9785 12.5144L17.2357 14.3713ZM19.8712 15.4256C20.251 15.5775 20.4999 15.9452 20.4999 16.354H22.4999C22.4999 15.1272 21.7529 14.0242 20.614 13.5687L19.8712 15.4256ZM20.4999 16.3541L20.5 19.1054L22.5 19.1053L22.4999 16.354L20.4999 16.3541ZM20.5 19.1053C20.5 19.5995 20.0995 20 19.6055 20V22C21.2043 22 22.5 20.704 22.5 19.1053H20.5ZM19.6055 20C11.263 20 4.5 13.2372 4.5 4.89478H2.5C2.5 14.3418 10.1585 22 19.6055 22V20ZM4.5 4.89478C4.5 4.4006 4.90061 4 5.39474 4V2C3.79599 2 2.5 3.29608 2.5 4.89478H4.5ZM5.39474 4H8.146V2H5.39474V4Z" fill="white"/>
</svg>
